<svg width="54" height="50" viewBox="0 0 54 50" fill="none" xmlns="http://www.w3.org/2000/svg">
<g clip-path="url(#clip0)">
<path d="M15.5301 19.67C15.5301 20.2581 15.2965 20.822 14.8807 21.2378C14.4649 21.6536 13.9009 21.8872 13.3129 21.8872C12.7249 21.8872 12.1609 21.6536 11.7451 21.2378C11.3293 20.822 11.0957 20.2581 11.0957 19.67V10.8012C11.1028 10.2178 11.3395 9.6607 11.7545 9.25065C12.1695 8.8406 12.7295 8.61066 13.3129 8.61066C13.8963 8.61066 14.4563 8.8406 14.8713 9.25065C15.2864 9.6607 15.5231 10.2178 15.5301 10.8012V19.67ZM24.9395 31.2293C24.9395 31.8173 24.7059 32.3813 24.2901 32.7971C23.8743 33.2129 23.3103 33.4465 22.7223 33.4465C22.1342 33.4465 21.5703 33.2129 21.1545 32.7971C20.7387 32.3813 20.5051 31.8173 20.5051 31.2293V22.3605C20.5121 21.7771 20.7488 21.22 21.1639 20.8099C21.5789 20.3999 22.1388 20.1699 22.7223 20.1699C23.3057 20.1699 23.8657 20.3999 24.2807 20.8099C24.6957 21.22 24.9324 21.7771 24.9395 22.3605V31.2293ZM32.7671 31.2293C32.7671 31.8173 32.5335 32.3813 32.1177 32.7971C31.7019 33.2129 31.138 33.4465 30.5499 33.4465C29.9619 33.4465 29.3979 33.2129 28.9821 32.7971C28.5663 32.3813 28.3327 31.8173 28.3327 31.2293V22.3605C28.3398 21.7771 28.5765 21.22 28.9915 20.8099C29.4066 20.3999 29.9665 20.1699 30.5499 20.1699C31.1334 20.1699 31.6933 20.3999 32.1083 20.8099C32.5234 21.22 32.7601 21.7771 32.7671 22.3605V31.2293ZM42.2171 19.67C42.2171 20.2581 41.9835 20.822 41.5677 21.2378C41.1518 21.6536 40.5879 21.8872 39.9999 21.8872C39.4118 21.8872 38.8479 21.6536 38.4321 21.2378C38.0162 20.822 37.7826 20.2581 37.7826 19.67V10.8012C37.7897 10.2178 38.0264 9.6607 38.4414 9.25065C38.8565 8.8406 39.4164 8.61066 39.9999 8.61066C40.5833 8.61066 41.1432 8.8406 41.5583 9.25065C41.9733 9.6607 42.21 10.2178 42.2171 10.8012V19.67Z" fill="#96C03A"/>
<path d="M36.4576 8.55763V24.4991C36.4576 24.7419 36.4097 24.9824 36.3168 25.2068C36.2238 25.4312 36.0876 25.6351 35.9159 25.8068C35.7441 25.9786 35.5403 26.1148 35.3159 26.2077C35.0915 26.3007 34.851 26.3485 34.6081 26.3485H18.7316C18.4887 26.3485 18.2482 26.3007 18.0237 26.2078C17.7993 26.1149 17.5954 25.9787 17.4236 25.8069C17.2519 25.6352 17.1156 25.4313 17.0226 25.2069C16.9297 24.9825 16.8818 24.742 16.8818 24.4991V8.55763H36.4576ZM26.6702 -0.635986C21.3536 -0.635986 17.0314 2.90551 16.9023 7.31364H36.4381C36.3083 2.90519 31.9862 -0.635986 26.6702 -0.635986ZM22.4648 4.49732C21.8597 4.49732 21.3685 4.00641 21.3685 3.40129C21.3754 3.11513 21.494 2.84304 21.6989 2.64312C21.9037 2.44319 22.1786 2.33128 22.4648 2.33128C22.7511 2.33128 23.026 2.44319 23.2308 2.64312C23.4357 2.84304 23.5542 3.11513 23.5612 3.40129C23.561 3.69198 23.4454 3.97071 23.2399 4.17622C23.0343 4.38174 22.7555 4.49723 22.4648 4.49732ZM30.8804 4.49732C30.7364 4.49728 30.5939 4.46888 30.4609 4.41374C30.3279 4.3586 30.207 4.27781 30.1052 4.17597C30.0035 4.07414 29.9228 3.95325 29.8677 3.82022C29.8126 3.68719 29.7843 3.54461 29.7844 3.40064C29.7844 3.25666 29.8128 3.11411 29.8679 2.98111C29.9231 2.84811 30.0039 2.72727 30.1057 2.62549C30.2075 2.52372 30.3284 2.443 30.4615 2.38794C30.5945 2.33288 30.7371 2.30457 30.881 2.30461C31.1718 2.30469 31.4506 2.42028 31.6562 2.62595C31.8617 2.83162 31.9772 3.11052 31.9771 3.40129C31.977 3.69206 31.8614 3.97089 31.6557 4.17643C31.4501 4.38198 31.1712 4.4974 30.8804 4.49732Z" fill="#96C03A"/>
<path d="M23.0291 0.83022C23.0685 0.895257 23.0812 0.972987 23.0646 1.04716C23.0479 1.12134 23.0033 1.18621 22.9399 1.22823C22.8766 1.27025 22.7995 1.28616 22.7247 1.27264C22.6499 1.25911 22.5832 1.2172 22.5386 1.15565L20.2174 -2.34723C20.1743 -2.41237 20.1588 -2.49197 20.1744 -2.56852C20.19 -2.64506 20.2353 -2.71229 20.3004 -2.7554C20.3656 -2.79851 20.4452 -2.81398 20.5217 -2.7984C20.5983 -2.78283 20.6655 -2.73748 20.7086 -2.67234L23.0291 0.83022ZM30.3074 0.83022C30.2642 0.895319 30.2487 0.974895 30.2642 1.05144C30.2797 1.12799 30.325 1.19524 30.3901 1.23839C30.4552 1.28155 30.5348 1.29708 30.6114 1.28156C30.6879 1.26604 30.7551 1.22075 30.7983 1.15565L33.1195 -2.34723C33.1626 -2.41237 33.1781 -2.49197 33.1625 -2.56852C33.1469 -2.64506 33.1016 -2.71229 33.0364 -2.7554C32.9713 -2.79851 32.8917 -2.81398 32.8151 -2.7984C32.7386 -2.78283 32.6714 -2.73748 32.6283 -2.67234L30.3074 0.83022Z" fill="#96C03A"/>
</g>
<defs>
<clipPath id="clip0">
<rect width="53.279" height="49.72" fill="white"/>
</clipPath>
</defs>
</svg>
