<svg width="64" height="24" viewBox="0 0 64 24" fill="none" xmlns="http://www.w3.org/2000/svg">
<g clip-path="url(#clip0)">
<path d="M3.08347 20.5778C2.91987 20.404 2.72049 20.2659 2.50065 20.1688C2.28081 20.0717 2.04564 20.0257 1.80535 20.0257C1.56506 20.0205 1.32989 20.0717 1.11005 20.1637C0.890216 20.2608 0.690829 20.3989 0.527229 20.5727C0.358517 20.7414 0.225592 20.9408 0.13868 21.1606C0.0517676 21.3856 0.00575517 21.6208 0.00575517 21.8559C0.000642682 22.0962 0.0466551 22.3314 0.13868 22.5512C0.230705 22.7711 0.363629 22.9704 0.532342 23.1392C0.695989 23.3131 0.894299 23.4507 1.11446 23.5431C1.33462 23.6356 1.57173 23.6809 1.81046 23.676C2.04869 23.6773 2.28473 23.6304 2.50437 23.5382C2.72402 23.4459 2.92274 23.3102 3.08859 23.1392C3.26241 22.9756 3.39534 22.7762 3.48736 22.5563C3.57939 22.3365 3.6254 22.1013 3.6254 21.861C3.6254 21.6208 3.57939 21.3856 3.48736 21.1657C3.39022 20.9408 3.2573 20.7414 3.08347 20.5778ZM24.4792 16.4265C24.4537 17.5717 24.5099 18.722 24.6428 19.8621H24.5815C24.4383 19.5809 24.1214 19.0594 23.6357 18.2976L11.9792 3.05176e-05H8.44136V23.359H11.1612V6.47244C11.1919 5.40393 11.1459 4.33542 11.0334 3.26691H11.1356C11.3299 3.77816 11.5804 4.26896 11.877 4.72908L23.8504 23.359H27.1991V3.05176e-05H24.4792V16.4265ZM45.6398 20.7925H36.0284V12.6995H44.4384V10.2352H36.0284V2.47448H45.0519V3.05176e-05H33.2421V23.359H45.6245L45.6398 20.7925ZM47.7206 3.05176e-05V2.47448H54.418V23.359H57.1378V2.47448H63.9119V3.05176e-05H47.7206Z" fill="#621EE5"/>
</g>
<defs>
<clipPath id="clip0">
<rect width="64" height="23.6763" fill="white"/>
</clipPath>
</defs>
</svg>
