<svg width="64" height="39" viewBox="0 0 64 39" fill="none" xmlns="http://www.w3.org/2000/svg">
<g clip-path="url(#clip0)">
<path d="M0 -16H64V48H0V-16Z" fill="white"/>
<path d="M26.7249 2.5854C24.7345 2.61171 23.0206 3.00178 21.337 3.84069C17.0372 5.98248 14.5544 10.4928 14.5544 16.1759C14.5544 21.872 16.9969 26.2486 21.3114 28.2959C22.477 28.8489 23.6454 29.15 25.4191 29.3609C26.3168 29.3969 27.1564 29.4607 28.0306 29.3609C29.8044 29.15 30.9728 28.8489 32.1383 28.2959C36.4532 26.2486 38.8957 21.8723 38.8957 16.1759C38.8957 10.4928 36.4125 5.98248 32.1131 3.84069C30.4291 3.00178 28.7156 2.61171 26.7249 2.5854ZM28.4366 6.59175C31.0182 7.2796 32.8914 9.60886 33.6088 13.0067C34.1135 15.3929 33.9758 18.1501 33.2541 20.3218C32.13 23.7037 29.6901 25.6137 26.7249 25.5831C23.7597 25.6137 21.3197 23.7037 20.196 20.3218C19.475 18.1501 19.3369 15.3929 19.8409 13.0067C20.5587 9.60886 22.4319 7.2796 25.0135 6.59175C26.1841 6.34372 27.3504 6.38842 28.4366 6.59175ZM9.58187 2.5854C9.07142 2.5854 8.57243 2.73676 8.148 3.02035C7.72358 3.30395 7.39278 3.70703 7.19744 4.17862C7.00209 4.65022 6.95098 5.16915 7.05057 5.6698C7.15015 6.17044 7.39596 6.63031 7.7569 6.99126C8.11785 7.3522 8.57772 7.59801 9.07837 7.69759C9.57901 7.79718 10.0979 7.74607 10.5695 7.55073C11.0411 7.35538 11.4442 7.02458 11.7278 6.60016C12.0114 6.17573 12.1628 5.67674 12.1628 5.16629C12.1628 4.48179 11.8909 3.82533 11.4068 3.34132C10.9228 2.85731 10.2664 2.5854 9.58187 2.5854ZM7.17042 10.46V29.4146H11.9933V10.46H7.17042ZM45.9084 29.3749C43.8419 29.0209 41.8544 28.7469 40.1672 27.7887C40.1449 27.7689 41.1633 23.9633 41.2091 23.8952C43.9209 24.8159 47.7379 26.1073 50.3116 24.9241C51.7147 24.2222 52.4058 22.9247 52.1737 21.4271C51.9123 19.7439 50.7468 18.7738 47.5472 17.5776C43.9782 16.2437 41.8872 14.6037 41.031 12.4717C40.6103 11.4229 40.4711 10.0883 40.66 8.92245C41.1864 5.67966 43.7125 3.42394 47.5894 2.73428C48.7124 2.53456 51.1145 2.53276 52.2962 2.73032C53.9993 3.01512 55.9525 3.65936 55.9525 3.93623C55.9525 4.03825 54.9546 7.55684 54.9035 7.63471C53.2195 6.96776 51.3308 6.49117 49.7327 6.48107C47.4715 6.45259 45.0201 7.79477 45.4527 10.1658C45.7587 11.6515 46.7069 12.3769 50.1966 13.7947C52.7671 14.8402 54.0004 15.5612 55.0574 16.6341C56.5265 18.101 56.9908 19.8221 57.0016 21.5281C57.0056 22.9488 56.8729 23.6118 56.366 24.7088C55.1345 27.3733 52.6298 28.9179 48.8519 29.3428C48.1453 29.4218 46.4805 29.4398 45.9102 29.3749H45.9084Z" fill="#171825"/>
</g>
<defs>
<clipPath id="clip0">
<rect width="64" height="39" fill="white"/>
</clipPath>
</defs>
</svg>
