<svg width="64" height="63" viewBox="0 0 64 63" fill="none" xmlns="http://www.w3.org/2000/svg">
<path fill-rule="evenodd" clip-rule="evenodd" d="M0 0H64V62.8142H0V0Z" fill="white"/>
<path fill-rule="evenodd" clip-rule="evenodd" d="M26.6854 33.1507C26.6854 33.1507 25.1568 34.0238 27.7745 34.3187C30.9466 34.6742 32.5669 34.6231 36.0615 33.9742C36.0615 33.9742 36.9815 34.5396 38.2658 35.0288C30.4297 38.3244 20.5313 34.8381 26.6854 33.1507ZM25.7275 28.8502C25.7275 28.8502 24.0126 30.096 26.6326 30.3619C30.0213 30.7054 32.6961 30.7334 37.3275 29.8587C37.3275 29.8587 37.967 30.4958 38.9734 30.8439C29.5003 33.5633 18.9499 31.058 25.7275 28.8502Z" fill="#3174B9"/>
<path fill-rule="evenodd" clip-rule="evenodd" d="M33.7993 21.5544C35.7311 23.7368 33.293 25.6995 33.293 25.6995C33.293 25.6995 38.1957 23.216 35.9439 20.1049C33.8415 17.205 32.2288 15.7643 40.9582 10.796C40.9579 10.7957 27.2554 14.1535 33.7993 21.5544Z" fill="#CA3132"/>
<path fill-rule="evenodd" clip-rule="evenodd" d="M44.1627 36.3321C44.1627 36.3321 45.2942 37.2478 42.9163 37.956C38.3944 39.3002 24.0924 39.7056 20.1197 38.0094C18.6927 37.3994 21.3701 36.5537 22.2125 36.3752C23.091 36.1888 23.5924 36.2226 23.5924 36.2226C22.0043 35.1251 13.3274 38.3783 19.1857 39.3116C35.1601 41.8537 48.3057 38.1671 44.1627 36.3321ZM27.4209 24.3941C27.4209 24.3941 20.1469 26.0903 24.8454 26.7068C26.8299 26.9672 30.783 26.9072 34.4682 26.6039C37.479 26.3559 40.5011 25.8253 40.5011 25.8253C40.5011 25.8253 39.4403 26.2721 38.6716 26.7863C31.2837 28.6937 17.0139 27.8053 21.1224 25.8556C24.5961 24.2064 27.4209 24.3941 27.4209 24.3941ZM40.4709 31.5526C47.9803 27.7235 44.5083 24.0431 42.0842 24.5391C41.4915 24.6607 41.2256 24.7656 41.2256 24.7656C41.2256 24.7656 41.4467 24.426 41.8671 24.2801C46.6618 22.6262 50.3487 29.159 40.3212 31.7461C40.3208 31.7461 40.4364 31.6438 40.4709 31.5526Z" fill="#3174B9"/>
<path fill-rule="evenodd" clip-rule="evenodd" d="M35.9437 2.77124C35.9437 2.77124 40.1016 6.85476 31.9989 13.1321C25.5007 18.1694 30.5173 21.0407 31.9969 24.3226C28.2031 20.9638 25.4204 18.0065 27.2871 15.2548C30.0276 11.2156 37.6214 9.25678 35.9437 2.77124Z" fill="#CA3132"/>
<path fill-rule="evenodd" clip-rule="evenodd" d="M28.1597 41.9317C35.3667 42.384 46.4361 41.6804 46.6988 38.3327C46.6988 38.3327 46.1947 39.6017 40.7419 40.6083C34.5897 41.745 27.0006 41.6127 22.501 40.8837C22.501 40.8837 23.423 41.6325 28.1597 41.9317Z" fill="#3174B9"/>
<path fill-rule="evenodd" clip-rule="evenodd" d="M46.3657 47.9345H46.1466V47.8139H46.7379V47.9345H46.5188V48.5367H46.3657V47.9345ZM47.5457 47.9645H47.5431L47.3253 48.5364H47.2253L47.0088 47.9645H47.0062V48.5364H46.8608V47.8136H47.0743L47.2748 48.3249L47.4753 47.8136H47.6868V48.5364H47.5461V47.9645H47.5457ZM26.9787 54.7208C26.299 55.2989 25.5805 55.6241 24.9354 55.6241C24.0163 55.6241 23.5176 55.0822 23.5176 54.2151C23.5176 53.2762 24.0515 52.5893 26.1885 52.5893H26.9783V54.7208H26.9787ZM28.8546 56.7979V50.3678C28.8546 48.7244 27.8997 47.6399 25.5978 47.6399C24.2547 47.6399 23.0774 47.9654 22.1201 48.3803L22.3957 49.5192C23.1497 49.2474 24.1246 48.9955 25.0815 48.9955C26.4076 48.9955 26.9783 49.5192 26.9783 50.6034V51.4164H26.3156C23.0943 51.4164 21.6407 52.643 21.6407 54.4872C21.6407 56.0761 22.5986 56.9794 24.4018 56.9794C25.5609 56.9794 26.4268 56.5099 27.2353 55.8226L27.3824 56.7979H28.8546ZM35.1157 56.7979H32.7765L29.9599 47.8035H32.0032L33.7514 53.3306L34.1405 54.9913C35.0224 52.5893 35.6482 50.1508 35.9613 47.8035H37.9482C37.4163 50.765 36.458 54.0166 35.1157 56.7979ZM44.0926 54.7208C43.411 55.2989 42.6925 55.6241 42.0487 55.6241C41.1296 55.6241 40.6316 55.0822 40.6316 54.2151C40.6316 53.2762 41.1658 52.5893 43.3014 52.5893H44.0926V54.7208ZM45.9693 56.7979V50.3678C45.9693 48.7244 45.0114 47.6399 42.7118 47.6399C41.3674 47.6399 40.1903 47.9654 39.2331 48.3803L39.5087 49.5192C40.2627 49.2474 41.2395 48.9955 42.1968 48.9955C43.5209 48.9955 44.0923 49.5192 44.0923 50.6034V51.4164H43.4296C40.2079 51.4164 38.7553 52.643 38.7553 54.4872C38.7553 56.0761 39.7112 56.9794 41.5148 56.9794C42.6749 56.9794 43.5395 56.5099 44.35 55.8226L44.4977 56.7979H45.9693ZM19.5838 58.3263C19.0492 59.0931 18.1846 59.7002 17.2393 60.0427L16.313 58.9718C17.0332 58.6091 17.6501 58.0235 17.9373 57.4787C18.1846 56.9931 18.2879 56.3688 18.2879 54.8743V44.6044H20.2817V54.7325C20.2817 56.7315 20.119 57.5393 19.5838 58.3263Z" fill="#CA3132"/>
</svg>
