<svg width="64" height="39" viewBox="0 0 64 39" fill="none" xmlns="http://www.w3.org/2000/svg">
<path d="M31.6058 38.2839C31.3892 38.2839 31.1869 38.2274 30.9991 38.1285L29.078 37.0121C28.789 36.8566 28.9335 36.8001 29.0202 36.7718C29.4102 36.6447 29.4824 36.6163 29.8869 36.3903C29.9302 36.362 29.9881 36.3762 30.0313 36.4044L31.5048 37.2665C31.5625 37.2947 31.6348 37.2947 31.678 37.2665L37.4416 34.0019C37.4994 33.9737 37.5284 33.9171 37.5284 33.8465V27.3317C37.5284 27.2609 37.4994 27.2045 37.4416 27.1762L31.678 23.9258C31.6203 23.8975 31.548 23.8975 31.5048 23.9258L25.7411 27.1762C25.6834 27.2044 25.6544 27.2751 25.6544 27.3316V33.8464C25.6544 33.903 25.6834 33.9736 25.7411 34.0019L27.3157 34.8922C28.168 35.3162 28.7024 34.8216 28.7024 34.3269V27.8968C28.7024 27.8121 28.7746 27.7272 28.8757 27.7272H29.6124C29.6991 27.7272 29.7857 27.7979 29.7857 27.8968V34.3269C29.7857 35.4433 29.1646 36.0935 28.0812 36.0935C27.749 36.0935 27.489 36.0935 26.7523 35.7401L25.2356 34.8922C24.86 34.6803 24.6289 34.2845 24.6289 33.8606V27.3457C24.6289 26.9218 24.86 26.526 25.2356 26.3141L30.9991 23.0496C31.3603 22.8518 31.8515 22.8518 32.2126 23.0496L37.9761 26.3141C38.3516 26.526 38.5829 26.9218 38.5829 27.3457V33.8606C38.5829 34.2845 38.3516 34.6803 37.9761 34.8922L32.2126 38.1567C32.0247 38.2416 31.8081 38.2839 31.6059 38.2839H31.6058ZM33.3825 33.8041C30.8547 33.8041 30.3347 32.6735 30.3347 31.7126C30.3347 31.6277 30.4069 31.543 30.508 31.543H31.2592C31.3458 31.543 31.418 31.5995 31.418 31.6843C31.5336 32.4333 31.8658 32.8007 33.397 32.8007C34.6104 32.8007 35.1306 32.5322 35.1306 31.8962C35.1306 31.5288 34.9859 31.2604 33.0937 31.0766C31.5191 30.9211 30.5369 30.582 30.5369 29.3525C30.5369 28.2078 31.5193 27.5294 33.1659 27.5294C35.0148 27.5294 35.9249 28.1513 36.0406 29.5078C36.0406 29.5504 36.0261 29.5927 35.9972 29.6351C35.9682 29.6634 35.925 29.6916 35.8816 29.6916H35.1304C35.0582 29.6916 34.9859 29.6351 34.9716 29.5644C34.7982 28.7873 34.3504 28.5328 33.1659 28.5328C31.837 28.5328 31.678 28.9851 31.678 29.3242C31.678 29.734 31.8658 29.8612 33.657 30.0873C35.4338 30.3135 36.2717 30.6385 36.2717 31.8538C36.2572 33.0975 35.2172 33.8041 33.3825 33.8041Z" fill="#539E43"/>
<path d="M13.7228 12.8038C13.7228 12.5495 13.5783 12.3091 13.3472 12.1819L7.22254 8.73373C7.12131 8.67712 7.00582 8.64887 6.89034 8.63469H6.83247C6.71698 8.63469 6.60138 8.67712 6.50026 8.73373L0.375575 12.1819C0.144356 12.3091 0 12.5494 0 12.8038L0.0144981 22.0744C0.0144981 22.2016 0.0867385 22.3288 0.202223 22.3854C0.317833 22.4561 0.462189 22.4561 0.563425 22.3854L4.20357 20.3503C4.43466 20.2232 4.57914 19.9829 4.57914 19.7286V15.39C4.57914 15.1356 4.7235 14.8954 4.95472 14.7682L6.50026 13.892C6.61587 13.8213 6.74586 13.7929 6.87584 13.7929C7.00582 13.7929 7.1358 13.8213 7.23704 13.892L8.78259 14.7682C9.01381 14.8954 9.15816 15.1355 9.15816 15.39V19.7286C9.15816 19.9829 9.30264 20.2232 9.53374 20.3503L13.1739 22.3854C13.2895 22.4561 13.4338 22.4561 13.5495 22.3854C13.6651 22.3288 13.7373 22.2016 13.7373 22.0744L13.7228 12.8038ZM43.1618 0.0424604C43.0463 -0.0141535 42.9018 -0.0141535 42.8006 0.0424604C42.6851 0.113136 42.6129 0.226119 42.6129 0.353287V9.53929C42.6129 9.62403 42.5696 9.70877 42.4829 9.76538C42.3963 9.80769 42.3095 9.80769 42.2229 9.76538L40.6917 8.90333C40.5795 8.8408 40.4525 8.80792 40.3233 8.80792C40.1942 8.80792 40.0672 8.8408 39.955 8.90333L33.8303 12.3657C33.5992 12.4929 33.4547 12.7331 33.4547 12.9875V19.898C33.4547 20.1524 33.5992 20.3928 33.8303 20.5199L39.955 23.9823C40.0672 24.0448 40.1942 24.0777 40.3233 24.0777C40.4525 24.0777 40.5795 24.0448 40.6917 23.9823L46.8164 20.5199C47.0475 20.3928 47.192 20.1525 47.192 19.898V2.67103C47.192 2.40251 47.0475 2.16236 46.8164 2.03507L43.1619 0.0424604H43.1618ZM42.5985 17.6229C42.5985 17.6935 42.5696 17.75 42.5117 17.7783L40.4173 18.9653C40.388 18.9793 40.3559 18.9865 40.3233 18.9865C40.2908 18.9865 40.2587 18.9793 40.2294 18.9653L38.1349 17.7783C38.0771 17.75 38.0482 17.6793 38.0482 17.6229V15.2486C38.0482 15.1779 38.0771 15.1214 38.1349 15.0932L40.2294 13.906C40.2587 13.8921 40.2908 13.8848 40.3233 13.8848C40.3559 13.8848 40.388 13.8921 40.4173 13.906L42.5117 15.0932C42.5696 15.1213 42.5985 15.1921 42.5985 15.2486V17.6229ZM63.5437 15.1921C63.7749 15.065 63.9049 14.8247 63.9049 14.5702V12.8886C63.9049 12.6342 63.7604 12.394 63.5437 12.2668L57.4624 8.81859C57.3501 8.75608 57.2232 8.72322 57.0941 8.72322C56.9649 8.72322 56.838 8.75608 56.7257 8.81859L50.601 12.2808C50.3698 12.408 50.2255 12.6483 50.2255 12.9027V19.8133C50.2255 20.0676 50.3698 20.3079 50.601 20.4351L56.6824 23.8268C56.9136 23.9539 57.1879 23.9539 57.4046 23.8268L61.088 21.8202C61.2036 21.7636 61.2759 21.6364 61.2759 21.5093C61.2759 21.3821 61.2036 21.2549 61.088 21.1983L54.9345 17.736C54.819 17.6654 54.7467 17.5523 54.7467 17.4251V15.2629C54.7467 15.1358 54.819 15.0086 54.9345 14.952L56.8557 13.8779C56.912 13.8433 56.9771 13.8249 57.0435 13.8249C57.11 13.8249 57.1751 13.8433 57.2313 13.8779L59.1524 14.952C59.268 15.0226 59.3403 15.1356 59.3403 15.2629V16.9588C59.3403 17.0859 59.4125 17.2131 59.528 17.2696C59.6436 17.3403 59.788 17.3403 59.9036 17.2696L63.5437 15.1921Z" fill="#333333"/>
<path d="M57.0002 14.8671C57.0216 14.8533 57.0467 14.8459 57.0724 14.8459C57.098 14.8459 57.1231 14.8533 57.1445 14.8671L58.3147 15.5313C58.358 15.5594 58.3869 15.6018 58.3869 15.6585V16.9869C58.3869 17.0434 58.358 17.0858 58.3147 17.114L57.1445 17.7782C57.1231 17.792 57.098 17.7994 57.0724 17.7994C57.0467 17.7994 57.0216 17.792 57.0002 17.7782L55.8301 17.114C55.7867 17.0858 55.7578 17.0434 55.7578 16.9869V15.6585C55.7578 15.6018 55.7867 15.5594 55.8301 15.5313L57.0002 14.8671Z" fill="#539E43"/>
<mask id="mask0" mask-type="alpha" maskUnits="userSpaceOnUse" x="16" y="8" width="15" height="16">
<path d="M23.9643 8.84678C23.8521 8.78427 23.7252 8.7514 23.596 8.7514C23.4669 8.7514 23.3399 8.78427 23.2277 8.84678L17.1464 12.2807C16.9151 12.4078 16.7852 12.6481 16.7852 12.9024V19.7849C16.7852 20.0392 16.9296 20.2795 17.1464 20.4066L23.2277 23.8407C23.3399 23.9033 23.4669 23.9361 23.596 23.9361C23.7252 23.9361 23.8521 23.9033 23.9643 23.8407L30.0458 20.4066C30.2769 20.2795 30.407 20.0392 30.407 19.7849V12.9026C30.407 12.6482 30.2624 12.4079 30.0458 12.2808L23.9643 8.84678Z" fill="white"/>
</mask>
<g mask="url(#mask0)">
<path d="M23.9643 8.84678C23.8521 8.78427 23.7252 8.7514 23.596 8.7514C23.4669 8.7514 23.3399 8.78427 23.2277 8.84678L17.1464 12.2807C16.9151 12.4078 16.7852 12.6481 16.7852 12.9024V19.7849C16.7852 20.0392 16.9296 20.2795 17.1464 20.4066L23.2277 23.8407C23.3399 23.9033 23.4669 23.9361 23.596 23.9361C23.7252 23.9361 23.8521 23.9033 23.9643 23.8407L30.0458 20.4066C30.2769 20.2795 30.407 20.0392 30.407 19.7849V12.9026C30.407 12.6482 30.2624 12.4079 30.0458 12.2808L23.9643 8.84678Z" fill="url(#paint0_linear)"/>
<path d="M30.06 12.2813L23.9498 8.84735C23.8898 8.81769 23.8269 8.79401 23.762 8.77667L16.915 20.252C16.9718 20.3197 17.0403 20.3772 17.1174 20.4216L23.2275 23.8557C23.4009 23.9546 23.6031 23.9829 23.7908 23.9263L30.219 12.4228C30.1756 12.3663 30.1177 12.3238 30.06 12.2815V12.2813Z" fill="url(#paint1_linear)"/>
<path fill-rule="evenodd" clip-rule="evenodd" d="M30.0748 20.4068C30.2482 20.3079 30.3781 20.1383 30.436 19.9546L23.7333 8.76192C23.56 8.73367 23.3721 8.74773 23.2134 8.84665L17.1465 12.2667L23.6899 23.9399C23.7851 23.9246 23.8775 23.8961 23.9644 23.8551L30.0747 20.4069L30.0748 20.4068Z" fill="url(#paint2_linear)"/>
<path fill-rule="evenodd" clip-rule="evenodd" d="M30.0748 20.4067L23.9791 23.841C23.893 23.8839 23.8002 23.9125 23.7046 23.9257L23.8202 24.1377L30.5804 20.3079V20.2231L30.407 19.9403C30.3782 20.1382 30.2482 20.3078 30.0748 20.4067Z" fill="url(#paint3_linear)"/>
<path fill-rule="evenodd" clip-rule="evenodd" d="M30.0748 20.4067L23.9791 23.841C23.893 23.8839 23.8002 23.9125 23.7046 23.9257L23.8202 24.1377L30.5804 20.3079V20.2231L30.407 19.9403C30.3782 20.1382 30.2482 20.3078 30.0748 20.4067Z" fill="url(#paint4_linear)"/>
</g>
<defs>
<linearGradient id="paint0_linear" x1="26.0736" y1="11.4068" x2="19.6138" y2="21.7819" gradientUnits="userSpaceOnUse">
<stop stop-color="#41873F"/>
<stop offset="0.3288" stop-color="#418B3D"/>
<stop offset="0.6352" stop-color="#419637"/>
<stop offset="0.9319" stop-color="#3FA92D"/>
<stop offset="1" stop-color="#3FAE2A"/>
</linearGradient>
<linearGradient id="paint1_linear" x1="22.6726" y1="17.1505" x2="39.1979" y2="7.97346" gradientUnits="userSpaceOnUse">
<stop offset="0.1376" stop-color="#41873F"/>
<stop offset="0.4032" stop-color="#54A044"/>
<stop offset="0.7136" stop-color="#66B848"/>
<stop offset="0.9081" stop-color="#6CC04A"/>
</linearGradient>
<linearGradient id="paint2_linear" x1="16.5632" y1="16.344" x2="30.6352" y2="16.344" gradientUnits="userSpaceOnUse">
<stop offset="0.09192" stop-color="#6CC04A"/>
<stop offset="0.2864" stop-color="#66B848"/>
<stop offset="0.5968" stop-color="#54A044"/>
<stop offset="0.8624" stop-color="#41873F"/>
</linearGradient>
<linearGradient id="paint3_linear" x1="16.5633" y1="22.0506" x2="30.6352" y2="22.0506" gradientUnits="userSpaceOnUse">
<stop offset="0.09192" stop-color="#6CC04A"/>
<stop offset="0.2864" stop-color="#66B848"/>
<stop offset="0.5968" stop-color="#54A044"/>
<stop offset="0.8624" stop-color="#41873F"/>
</linearGradient>
<linearGradient id="paint4_linear" x1="32.6853" y1="11.081" x2="29.2677" y2="29.3848" gradientUnits="userSpaceOnUse">
<stop stop-color="#41873F"/>
<stop offset="0.3288" stop-color="#418B3D"/>
<stop offset="0.6352" stop-color="#419637"/>
<stop offset="0.9319" stop-color="#3FA92D"/>
<stop offset="1" stop-color="#3FAE2A"/>
</linearGradient>
</defs>
</svg>
