<svg width="133" height="39" viewBox="0 0 133 39" fill="none" xmlns="http://www.w3.org/2000/svg">
<g clip-path="url(#clip0)">
<path d="M50.1045 16.4307C50.1045 12.3551 48.9425 10.2628 46.6181 10.1483C45.6931 10.1046 44.7905 10.2519 43.912 10.593C43.2109 10.8438 42.739 11.0923 42.4908 11.3434V21.0713C43.9775 22.0044 45.2977 22.4382 46.4491 22.3699C48.8848 22.2085 50.1045 20.2309 50.1045 16.4307ZM52.9716 16.5997C52.9716 18.6703 52.486 20.389 51.5092 21.7556C50.4208 23.3025 48.9123 24.099 46.9836 24.1427C45.5297 24.1889 44.0318 23.7335 42.4905 22.7786V31.6201L39.9971 30.7307V11.1058C40.4063 10.6039 40.933 10.1729 41.5711 9.80713C43.0553 8.94231 44.8583 8.49787 46.9808 8.47604L47.0161 8.5113C48.9559 8.48695 50.4505 9.28348 51.5009 10.8984C52.4804 12.3798 52.9716 14.2784 52.9716 16.5997ZM68.2101 22.4024C68.2101 25.1796 67.9319 27.1027 67.3755 28.1721C66.8163 29.2412 65.7522 30.0951 64.181 30.731C62.907 31.2328 61.5291 31.5057 60.0508 31.5521L59.6386 29.9809C61.1418 29.7766 62.2003 29.5717 62.814 29.3671C64.0226 28.958 64.8518 28.3308 65.3075 27.4903C65.673 26.8057 65.8529 25.499 65.8529 23.565V22.9157C64.1479 23.6907 62.3612 24.0752 60.4927 24.0752C59.2649 24.0752 58.1821 23.6907 57.249 22.9157C56.2014 22.0727 55.6777 21.0036 55.6777 19.7078V9.32994L58.1712 8.47604V18.9213C58.1712 20.0369 58.5311 20.8964 59.2512 21.4993C59.9713 22.1021 60.9044 22.3915 62.0475 22.3694C63.1905 22.3448 64.4152 21.9028 65.7164 21.038V8.85219H68.2098V22.4024H68.2101ZM77.9434 24.0064C77.6702 24.0295 77.3963 24.0412 77.1222 24.0417C75.7119 24.0417 74.6123 23.7064 73.8269 23.0324C73.0438 22.3588 72.6512 21.4287 72.6512 20.2418V10.4209H70.9434V8.85247H72.6512V4.68679L75.1418 3.80014V8.85247H77.9434V10.4209H75.1418V20.1735C75.1418 21.1094 75.3926 21.7721 75.8944 22.1598C76.3254 22.4788 77.0102 22.6616 77.9431 22.708V24.0064H77.9434ZM93.0402 23.8018H90.5468V14.1774C90.5468 13.1981 90.3178 12.3551 89.8622 11.6515C89.3357 10.8547 88.6047 10.4564 87.666 10.4564C86.523 10.4564 85.0937 11.0593 83.3777 12.265V23.8018H80.8846V0.796783L83.3777 0.0111694V10.4892C84.9708 9.32966 86.7113 8.74864 88.6019 8.74864C89.9224 8.74864 90.9915 9.19336 91.8101 10.08C92.6313 10.9664 93.0405 12.0713 93.0405 13.3918V23.8018H93.0402ZM106.293 16.038C106.293 14.4721 105.995 13.1791 105.403 12.1561C104.699 10.9096 103.606 10.2519 102.127 10.1838C99.3934 10.342 98.0293 12.3005 98.0293 16.0545C98.0293 17.7758 98.3131 19.2135 98.886 20.3674C99.617 21.8379 100.714 22.5636 102.176 22.539C104.92 22.5169 106.293 20.3509 106.293 16.038ZM109.023 16.0543C109.023 18.2832 108.453 20.1382 107.316 21.6193C106.063 23.2781 104.334 24.1099 102.127 24.1099C99.9392 24.1099 98.2342 23.2779 97.0038 21.6193C95.8879 20.1382 95.3313 18.2832 95.3313 16.0543C95.3313 13.9594 95.9341 12.197 97.1401 10.7621C98.4141 9.23982 100.089 8.47604 102.16 8.47604C104.23 8.47604 105.916 9.23982 107.215 10.7621C108.421 12.197 109.023 13.9594 109.023 16.0543ZM123.318 23.8018H120.824V13.6319C120.824 12.5163 120.489 11.6459 119.818 11.0184C119.147 10.3938 118.252 10.0909 117.136 10.1153C115.953 10.1371 114.826 10.5245 113.756 11.2748V23.8018H111.263V10.9667C112.698 9.92216 114.018 9.23982 115.224 8.92076C116.362 8.62353 117.365 8.47604 118.23 8.47604C118.822 8.47604 119.379 8.53313 119.903 8.64788C120.882 8.8743 121.679 9.29439 122.292 9.91096C122.977 10.593 123.318 11.4111 123.318 12.3688V23.8018Z" fill="#646464"/>
<path d="M15.3712 0.888762C14.0882 0.89464 12.8632 1.00407 11.7854 1.19495C8.6099 1.7561 8.03336 2.93018 8.03336 5.09587V7.95593H15.5374V8.90919H5.21696C3.03616 8.90919 1.12628 10.2201 0.529026 12.7138C-0.16003 15.5722 -0.190536 17.3559 0.529026 20.3405C1.06247 22.5621 2.33647 24.1451 4.51727 24.1451H7.09745V20.7166C7.09745 18.2397 9.24046 16.055 11.7854 16.055H19.2808C21.3672 16.055 23.0328 14.3371 23.0328 12.2417V5.09559C23.0328 3.062 21.3171 1.53416 19.2808 1.19467C17.9914 0.980282 16.6541 0.882605 15.3712 0.888762ZM11.3129 3.18879C12.0882 3.18879 12.721 3.83222 12.721 4.62316C12.721 5.41129 12.0879 6.04885 11.3129 6.04885C10.5352 6.04885 9.90489 5.41157 9.90489 4.62316C9.90489 3.83222 10.5352 3.18879 11.3129 3.18879Z" fill="url(#paint0_linear)"/>
<path d="M23.9682 8.90894V12.2412C23.9682 14.8247 21.7779 16.9991 19.2803 16.9991H11.785C9.73181 16.9991 8.03296 18.7561 8.03296 20.8124V27.9579C8.03296 29.9918 9.80121 31.188 11.785 31.7713C14.1603 32.4698 16.4382 32.5961 19.2803 31.7713C21.1695 31.2244 23.0323 30.1234 23.0323 27.9579V25.0982H15.537V24.1449H26.7844C28.9654 24.1449 29.7779 22.6235 30.5364 20.3402C31.32 17.9898 31.2867 15.729 30.5364 12.7136C29.9973 10.5426 28.9679 8.90894 26.7844 8.90894H23.9682ZM19.7525 27.0047C20.5303 27.0047 21.1605 27.642 21.1605 28.4304C21.1605 29.2213 20.5303 29.8647 19.7525 29.8647C18.9772 29.8647 18.3444 29.2213 18.3444 28.4304C18.3444 27.6422 18.9775 27.0047 19.7525 27.0047Z" fill="url(#paint1_linear)"/>
<path d="M128.173 6.62911H128.61V3.88744H129.645V3.56055H127.137V3.88744H128.173V6.62911H128.173ZM130.033 6.62911H130.407V4.12506L131.217 6.62883H131.633L132.478 4.13345V6.62911H132.885V3.56083H132.346L131.423 6.1897L130.636 3.56083H130.033V6.62911Z" fill="#646464"/>
<path opacity="0.444" d="M25.6784 36.6293C25.6784 37.7062 21.1761 38.5792 15.6219 38.5792C10.068 38.5792 5.56567 37.7062 5.56567 36.6293C5.56567 35.5523 10.068 34.6791 15.6219 34.6791C21.1761 34.6791 25.6784 35.5523 25.6784 36.6293Z" fill="url(#paint2_radial)"/>
</g>
<defs>
<linearGradient id="paint0_linear" x1="-0.739374" y1="1.78184" x2="16.5649" y2="16.5256" gradientUnits="userSpaceOnUse">
<stop stop-color="#5A9FD4"/>
<stop offset="1" stop-color="#306998"/>
</linearGradient>
<linearGradient id="paint1_linear" x1="23.0575" y1="25.7169" x2="16.8491" y2="17.018" gradientUnits="userSpaceOnUse">
<stop stop-color="#FFD43B"/>
<stop offset="1" stop-color="#FFE873"/>
</linearGradient>
<radialGradient id="paint2_radial" cx="0" cy="0" r="1" gradientUnits="userSpaceOnUse" gradientTransform="translate(15.6187 36.5844) rotate(-90) scale(1.94962 8.57131)">
<stop stop-color="#B8B8B8" stop-opacity="0.498"/>
<stop offset="1" stop-color="#7F7F7F" stop-opacity="0"/>
</radialGradient>
<clipPath id="clip0">
<rect width="132.886" height="38.59" fill="white"/>
</clipPath>
</defs>
</svg>
